<svg width="187" height="48" viewBox="0 0 187 48" fill="none" xmlns="http://www.w3.org/2000/svg">
<path d="M44.9444 39.1089L34.5911 30.3489L38.8337 26.1063C39.115 26.3876 39.4965 26.5456 39.8943 26.5456C40.2921 26.5456 40.6737 26.3876 40.955 26.1063L43.0763 23.985C43.3576 23.7037 43.5156 23.3222 43.5156 22.9243C43.5156 22.5265 43.3576 22.145 43.0763 21.8637L32.4696 11.2564C32.1883 10.9752 31.8068 10.8171 31.409 10.8171C31.0111 10.8171 30.6296 10.9752 30.3483 11.2564L28.227 13.3777C28.0877 13.517 27.9772 13.6824 27.9018 13.8644C27.8264 14.0464 27.7876 14.2415 27.7876 14.4385C27.7876 14.6355 27.8264 14.8305 27.9018 15.0125C27.9772 15.1945 28.0877 15.3599 28.227 15.4992L15.4992 28.227C15.3599 28.0877 15.1945 27.9772 15.0125 27.9018C14.8305 27.8264 14.6355 27.7876 14.4385 27.7876C14.2415 27.7876 14.0464 27.8264 13.8644 27.9018C13.6824 27.9772 13.517 28.0877 13.3778 28.227L11.2565 30.3483C10.9752 30.6296 10.8171 31.0111 10.8171 31.4089C10.8171 31.8068 10.9752 32.1883 11.2565 32.4696L21.8631 43.0762C22.1444 43.3575 22.5259 43.5156 22.9238 43.5156C23.3216 43.5156 23.7031 43.3575 23.9844 43.0762L26.1057 40.955C26.387 40.6736 26.545 40.2921 26.545 39.8943C26.545 39.4965 26.387 39.1149 26.1057 38.8336L30.3483 34.591L39.1083 44.9443C39.4784 45.381 39.935 45.7362 40.4492 45.9874C40.9635 46.2387 41.5243 46.3806 42.0962 46.4042C42.6681 46.4277 43.2386 46.3324 43.7719 46.1243C44.3051 45.9162 44.7893 45.5998 45.194 45.1951C45.5988 44.7904 45.9152 44.3061 46.1233 43.7729C46.3314 43.2397 46.4267 42.6691 46.4031 42.0972C46.3795 41.5253 46.2377 40.9646 45.9864 40.4503C45.7351 39.936 45.381 39.479 44.9444 39.1089Z" fill="#0EA106"/>
<path d="M28.5 0H4.5C3.3076 0.00348242 2.16503 0.478706 1.32187 1.32187C0.478706 2.16503 0.00348242 3.3076 0 4.5L0 37.5C0.00348242 38.6924 0.478706 39.835 1.32187 40.6781C2.16503 41.5213 3.3076 41.9965 4.5 42H16.545L9.135 34.59C8.71659 34.1729 8.38461 33.6772 8.15809 33.1315C7.93158 32.5859 7.81498 32.0008 7.81498 31.41C7.81498 30.8192 7.93158 30.2341 8.15809 29.6885C8.38461 29.1428 8.71659 28.6471 9.135 28.23L10.3563 27H7.5C7.10218 27 6.72064 26.842 6.43934 26.5607C6.15804 26.2794 6 25.8978 6 25.5C6 25.1022 6.15804 24.7206 6.43934 24.4393C6.72064 24.158 7.10218 24 7.5 24H10.5C10.8978 24 11.2794 24.158 11.5607 24.4393C11.842 24.7206 12 25.1022 12 25.5L11.999 25.5052C12.7997 24.9973 13.7378 24.7492 14.685 24.795L18.6264 20.8536C18.4309 20.9478 18.217 20.9978 18 21H7.5C7.10218 21 6.72064 20.842 6.43934 20.5607C6.15804 20.2794 6 19.8978 6 19.5C6 19.1022 6.15804 18.7206 6.43934 18.4393C6.72064 18.158 7.10218 18 7.5 18H18C18.3978 18 18.7794 18.158 19.0607 18.4393C19.342 18.7206 19.5 19.1022 19.5 19.5C19.4978 19.7171 19.4478 19.931 19.3535 20.1265L24.795 14.685C24.7633 14.0533 24.8629 13.422 25.0875 12.8307C25.3121 12.2395 25.6569 11.7013 26.1 11.25L28.23 9.135C28.8418 8.52273 29.6169 8.09955 30.4628 7.91601C31.3087 7.73248 32.1895 7.79635 33 8.1V4.5C32.9965 3.3076 32.5213 2.16503 31.6781 1.32187C30.835 0.478706 29.6924 0.00348242 28.5 0ZM22.5 15H7.5C7.10218 15 6.72064 14.842 6.43934 14.5607C6.15804 14.2794 6 13.8978 6 13.5C6 13.1022 6.15804 12.7206 6.43934 12.4393C6.72064 12.158 7.10218 12 7.5 12H22.5C22.8978 12 23.2794 12.158 23.5607 12.4393C23.842 12.7206 24 13.1022 24 13.5C24 13.8978 23.842 14.2794 23.5607 14.5607C23.2794 14.842 22.8978 15 22.5 15ZM25.5 9H7.5C7.10218 9 6.72064 8.84196 6.43934 8.56066C6.15804 8.27936 6 7.89782 6 7.5C6 7.10218 6.15804 6.72064 6.43934 6.43934C6.72064 6.15804 7.10218 6 7.5 6H25.5C25.8978 6 26.2794 6.15804 26.5607 6.43934C26.842 6.72064 27 7.10218 27 7.5C27 7.89782 26.842 8.27936 26.5607 8.56066C26.2794 8.84196 25.8978 9 25.5 9Z" fill="#0F0F0F" fill-opacity="0.3"/>
<path d="M66.112 37V13.16H71.072V32.68H81.152V37H66.112ZM88.668 37.384C87.4093 37.384 86.3213 37.1813 85.404 36.776C84.4867 36.3707 83.7827 35.7947 83.292 35.048C82.8013 34.28 82.556 33.3733 82.556 32.328C82.556 31.3467 82.78 30.4827 83.228 29.736C83.676 28.968 84.3587 28.328 85.276 27.816C86.2147 27.304 87.3773 26.9413 88.764 26.728L94.108 25.864V29.384L89.628 30.184C88.9453 30.312 88.4227 30.536 88.06 30.856C87.6973 31.1547 87.516 31.592 87.516 32.168C87.516 32.7013 87.7187 33.1173 88.124 33.416C88.5293 33.7147 89.0307 33.864 89.628 33.864C90.4173 33.864 91.1107 33.6933 91.708 33.352C92.3053 33.0107 92.764 32.552 93.084 31.976C93.4253 31.3787 93.596 30.728 93.596 30.024V25.48C93.596 24.8187 93.3293 24.264 92.796 23.816C92.284 23.368 91.58 23.144 90.684 23.144C89.8307 23.144 89.0733 23.3787 88.412 23.848C87.772 24.3173 87.3027 24.936 87.004 25.704L83.164 23.88C83.5053 22.8987 84.0493 22.056 84.796 21.352C85.5427 20.648 86.4387 20.104 87.484 19.72C88.5293 19.336 89.6707 19.144 90.908 19.144C92.38 19.144 93.6813 19.4107 94.812 19.944C95.9427 20.4773 96.8173 21.224 97.436 22.184C98.076 23.1227 98.396 24.2213 98.396 25.48V37H93.916V34.184L95.004 33.992C94.492 34.76 93.9267 35.4 93.308 35.912C92.6893 36.4027 91.996 36.7653 91.228 37C90.46 37.256 89.6067 37.384 88.668 37.384ZM106.524 37L100.508 19.528H105.468L109.692 32.136L107.964 32.104L112.668 19.528H116.828L121.5 32.104L119.772 32.136L123.996 19.528H128.988L122.94 37H118.78L113.916 23.496H115.58L110.684 37H106.524ZM132.191 37V32.2H136.991V37H132.191ZM143.237 37V13.16H153.317C154.96 13.16 156.368 13.4373 157.541 13.992C158.714 14.5467 159.61 15.3467 160.229 16.392C160.848 17.416 161.157 18.664 161.157 20.136C161.157 21.1813 160.869 22.184 160.293 23.144C159.717 24.0827 158.768 24.872 157.445 25.512V23.08C158.704 23.5707 159.674 24.1573 160.357 24.84C161.04 25.5227 161.509 26.2693 161.765 27.08C162.021 27.8693 162.149 28.7013 162.149 29.576C162.149 31.9227 161.37 33.7467 159.813 35.048C158.256 36.3493 156.09 37 153.317 37H143.237ZM148.197 32.68H153.893C154.896 32.68 155.696 32.392 156.293 31.816C156.89 31.24 157.189 30.4933 157.189 29.576C157.189 28.6373 156.89 27.88 156.293 27.304C155.696 26.728 154.896 26.44 153.893 26.44H148.197V32.68ZM148.197 22.12H153.669C154.437 22.12 155.045 21.9067 155.493 21.48C155.962 21.032 156.197 20.4453 156.197 19.72C156.197 18.9947 155.962 18.4187 155.493 17.992C155.045 17.544 154.437 17.32 153.669 17.32H148.197V22.12ZM165.331 37V13.16H173.107C175.688 13.16 177.928 13.672 179.827 14.696C181.725 15.72 183.197 17.128 184.243 18.92C185.288 20.712 185.811 22.76 185.811 25.064C185.811 27.368 185.288 29.4267 184.243 31.24C183.197 33.032 181.725 34.44 179.827 35.464C177.928 36.488 175.688 37 173.107 37H165.331ZM170.291 32.68H173.235C174.792 32.68 176.136 32.3707 177.267 31.752C178.397 31.112 179.272 30.2267 179.891 29.096C180.531 27.944 180.851 26.6 180.851 25.064C180.851 23.5067 180.531 22.1627 179.891 21.032C179.272 19.9013 178.397 19.0267 177.267 18.408C176.136 17.7893 174.792 17.48 173.235 17.48H170.291V32.68Z" fill="#0F0F0F" fill-opacity="0.8"/>
</svg>
